# xmcd
#
# Track frame offsets:
#	150
#	17182
#	30687
#	44367
#	57352
#	68215
#	84690
#	95587
#	111117
#	124787
#	137175
#	151970
#
# Disc length: 2264 seconds
#
# Revision: 4
# Processed by: cddbd v1.5.2PL0 Copyright (c) Steve Scherf et al.
# Submitted via: EasyCDDAExtractor 9.1.3.1
#
DISCID=a508d60c
DTITLE=Ronnie Milsap - Greatest Hits
DYEAR=1980
DGENRE=Country
TTITLE0=Smokey Mountain Rain
TTITLE1=(I'd Be) A Legend In My Time
TTITLE2=(I'm A) Stand By My Woman Man
TTITLE3=I Hate You
TTITLE4=Pure Love 
TTITLE5=It Was Almost Like A Song
TTITLE6=Daydreams About Night Things
TTITLE7=Let's Take The Long Way Around The World
TTITLE8=Let My Love Be Your Pillow
TTITLE9=Please Don't Tell Me How The Story Ends
TTITLE10=Back On My Mind Again
TTITLE11=What A Difference You've Made In My Life
EXTD=
EXTT0=
EXTT1=
EXTT2=
EXTT3=
EXTT4=
EXTT5=
EXTT6=
EXTT7=
EXTT8=
EXTT9=
EXTT10=
EXTT11=
PLAYORDER=
